<svg width="23" height="19" viewBox="0 0 23 19" fill="none" xmlns="http://www.w3.org/2000/svg">
<path id="Path Copy" d="M20.0008 4.5072C20.0096 4.704 20.0144 4.9024 20.0144 5.1008C20.0144 11.1416 15.4176 18.1048 7.0072 18.1048C4.4256 18.1048 2.0224 17.3504 0 16.0528C0.3576 16.0952 0.7216 16.1168 1.0904 16.1168C3.2328 16.1168 5.2032 15.3856 6.768 14.16C4.768 14.1232 3.0792 12.8016 2.4976 10.9848C2.776 11.0376 3.0632 11.0672 3.3568 11.0672C3.7736 11.0672 4.1784 11.0128 4.5616 10.908C2.4704 10.4888 0.8952 8.6416 0.8952 6.4256C0.8952 6.4064 0.8952 6.3864 0.896 6.368C1.512 6.7096 2.2168 6.916 2.9656 6.9392C1.74 6.1208 0.9328 4.7208 0.9328 3.1352C0.9328 2.2968 1.1576 1.5112 1.5512 0.836C3.8048 3.6024 7.1744 5.4216 10.9728 5.6136C10.8944 5.2784 10.8552 4.9304 10.8552 4.5712C10.8552 2.0472 12.9016 0 15.4256 0C16.7408 0 17.9272 0.5552 18.7624 1.4432C19.8048 1.2384 20.7808 0.8592 21.6664 0.3336C21.3224 1.4016 20.6 2.2968 19.6536 2.8632C20.5792 2.7528 21.4624 2.508 22.2792 2.144C21.6696 3.0592 20.8944 3.8648 20.0008 4.5072Z" fill="#F5BF23"/>
</svg>
