<svg width="23" height="16" viewBox="0 0 23 16" fill="none" xmlns="http://www.w3.org/2000/svg">
<path fill-rule="evenodd" clip-rule="evenodd" d="M20.1161 0.317956C21.3205 0.452311 22.321 1.35299 22.6026 2.57379C23.0001 4.29817 23 6.17919 23 7.9563V8.00012C23 9.78986 22.9986 11.6874 22.5976 13.426C22.316 14.6468 21.3153 15.5475 20.1116 15.6818C17.2599 15.9998 14.3736 16.0015 11.4992 15.9998C8.62521 16.0015 5.73819 15.9998 2.88631 15.6818C1.68188 15.5472 0.681868 14.6465 0.400764 13.426C0 11.6877 0 9.7901 0 8.00012C0 6.21014 0.00451094 4.31235 0.405275 2.57379C0.686854 1.35299 1.68663 0.452311 2.89034 0.317956C5.74246 0.000195801 8.62972 -0.00146292 11.5037 0.000195784C14.3772 -0.00146292 17.2639 0.000195801 20.1161 0.317956ZM8.5319 3.9716V11.563C9.55911 11.0314 10.5825 10.5018 11.6055 9.97249C13.0164 9.24242 14.4263 8.51284 15.8439 7.77904C13.3909 6.50184 10.9695 5.24099 8.5319 3.9716Z" fill="#F5BF23"/>
</svg>
